<?xml version="1.0" encoding="UTF-8"?>
<svg viewBox="0 0 419.14 403.6" xmlns="http://www.w3.org/2000/svg">
 <g transform="rotate(28.245 99.545 174.5)">
  <path d="m107.2 152.85c-0.094002 0.001007-0.19 0.006012-0.285 0.013-3.795 0.66501-5.882 4.738-6.184 8.33-0.44199 3.26 0.973 7.449 4.499 8.179 0.512 0.098999 1.043 0.054001 1.543-0.084 4.245-1.445 6.145-6.549 5.532-10.776-0.179-2.731-2.206-5.7-5.105-5.662zm-16.089 0.175c-2.3597 0.057999-4.1979 2.488-4.5718 4.771-0.7883 4.524 1.2393 10.146 5.8828 11.576 0.4349 0.096008 0.8848 0.106 1.3242 0.037003 3.1385-0.53101 4.4681-4.102 4.3368-6.986-0.094498-3.803-2.041-8.201-5.9325-9.271-0.3557-0.095993-0.7024-0.136-1.0395-0.127zm26.371 12.849c-4.082 0.248-6.88 4.383-7.279 8.243-0.541 2.784 0.922 6.509 4.052 6.731 4.364-0.054993 7.341-4.788 7.465-8.861 0.27599-2.694-1.287-5.964-4.238-6.113zm-35.73 0.918c-1.7367-0.015991-3.4448 1.04-4.0123 2.832-1.5141 4.794 1.5264 10.865 6.5283 11.872 2.0876 0.36299 3.9219-1.264 4.4395-3.222 1.0969-4.188-1.1561-9.05-4.9691-10.951-0.6212-0.354-1.3068-0.52499-1.9864-0.53101zm18.3 8.595c-3.4043 0.008011-6.8624 1.761-9.0671 4.372-2.3812 3.043-4.3318 6.584-5.0949 10.424-0.9271 2.764 1.1742 5.945 4.0852 5.964 3.5022 0.098999 6.512-2.342 9.9945-2.523 2.9543-0.45799 5.6003 1.102 8.2563 2.123 2.262 0.98201 5.387 0.606 6.542-1.865 0.908-2.518-0.429-5.203-1.536-7.439-2.259-3.63-4.679-7.445-8.383-9.712-1.484-0.93401-3.134-1.347-4.797-1.344z" fill="#7f7f7f"/>
 </g>
 <g transform="rotate(28.245 154.38 91.018)">
  <path d="m162.03 69.368c-0.093994 0.001205-0.19 0.005905-0.285 0.013405-3.795 0.6649-5.882 4.7383-6.184 8.3302-0.442 3.2594 0.97299 7.4487 4.499 8.179 0.511 0.098801 1.043 0.053696 1.543-0.084 4.245-1.445 6.145-6.5489 5.532-10.776-0.179-2.7304-2.207-5.6996-5.105-5.6621zm-16.089 0.1747c-2.36 0.0588-4.198 2.4881-4.572 4.7717-0.789 4.5242 1.239 10.146 5.882 11.576 0.435 0.096001 0.885 0.1059 1.325 0.036995 3.138-0.5309 4.468-4.1027 4.336-6.9861-0.093994-3.8036-2.04-8.2016-5.932-9.2711-0.35599-0.095703-0.702-0.1361-1.039-0.1277zm26.371 12.85c-4.082 0.24789-6.881 4.3823-7.28 8.2428-0.53999 2.7844 0.922 6.5085 4.052 6.7307 4.365-0.054596 7.342-4.7881 7.466-8.8611 0.276-2.6937-1.288-5.9636-4.238-6.1124zm-35.73 0.9174c-1.737-0.015198-3.445 1.0407-4.013 2.8327-1.514 4.7936 1.527 10.865 6.529 11.872 2.087 0.3626 3.921-1.2647 4.439-3.2226 1.097-4.1877-1.156-9.0502-4.969-10.951-0.621-0.3539-1.307-0.525-1.986-0.5309zm18.3 8.5957c-3.404 0.007301-6.863 1.7611-9.067 4.3717-2.381 3.0428-4.332 6.5838-5.095 10.424-0.927 2.764 1.174 5.945 4.085 5.964 3.502 0.098999 6.512-2.342 9.994-2.523 2.955-0.457 5.601 1.103 8.257 2.124 2.262 0.981 5.387 0.605 6.542-1.865 0.90799-2.519-0.429-5.204-1.537-7.44-2.258-3.63-4.678-7.4451-8.382-9.7114-1.484-0.93401-3.134-1.3478-4.797-1.3441z" fill="#7f7f7f"/>
 </g>
 <g transform="rotate(28.245 163.38 159.02)">
  <path d="m171.03 137.37c-0.093994 0.001007-0.19 0.005997-0.285 0.013-3.795 0.66501-5.882 4.739-6.184 8.331-0.442 3.259 0.97299 7.448 4.499 8.179 0.511 0.097992 1.043 0.052994 1.543-0.084 4.245-1.446 6.145-6.549 5.532-10.777-0.179-2.73-2.207-5.7-5.105-5.662zm-16.089 0.175c-2.36 0.057999-4.198 2.488-4.572 4.771-0.789 4.525 1.239 10.146 5.882 11.577 0.435 0.095993 0.885 0.105 1.325 0.035995 3.138-0.53 4.468-4.102 4.336-6.986-0.093994-3.803-2.04-8.201-5.932-9.271-0.35599-0.095001-0.702-0.136-1.039-0.127zm26.371 12.849c-4.082 0.248-6.881 4.383-7.28 8.243-0.53999 2.785 0.922 6.509 4.052 6.731 4.365-0.054993 7.342-4.788 7.466-8.861 0.276-2.694-1.288-5.964-4.238-6.113zm-35.73 0.918c-1.737-0.014999-3.445 1.041-4.013 2.833-1.514 4.793 1.527 10.864 6.529 11.871 2.087 0.36299 3.921-1.264 4.439-3.222 1.097-4.188-1.156-9.05-4.969-10.951-0.621-0.354-1.307-0.52501-1.986-0.53101zm18.3 8.595c-3.404 0.007996-6.863 1.762-9.067 4.372-2.381 3.043-4.332 6.584-5.095 10.424-0.927 2.764 1.174 5.945 4.085 5.964 3.502 0.099014 6.512-2.342 9.994-2.523 2.955-0.457 5.601 1.103 8.257 2.124 2.262 0.98099 5.387 0.605 6.542-1.865 0.90799-2.519-0.429-5.204-1.537-7.44-2.258-3.63-4.678-7.445-8.382-9.711-1.484-0.93401-3.134-1.348-4.797-1.345z" fill="#7f7f7f"/>
 </g>
 <g transform="rotate(28.245 115.85 245.35)">
  <path d="m123.5 223.7c-0.093994 0.001221-0.19 0.005905-0.285 0.013412-3.795 0.6649-5.882 4.7383-6.184 8.3302-0.442 3.2594 0.973 7.4487 4.499 8.179 0.51099 0.098801 1.043 0.053696 1.543-0.084 4.245-1.445 6.145-6.5489 5.532-10.776-0.17899-2.7304-2.207-5.6996-5.105-5.6621zm-16.089 0.1747c-2.36 0.058807-4.198 2.4881-4.572 4.7717-0.789 4.5242 1.239 10.146 5.882 11.576 0.43499 0.095993 0.88499 0.1059 1.325 0.036987 3.138-0.53088 4.468-4.1027 4.336-6.9861-0.093994-3.8036-2.04-8.2016-5.932-9.2711-0.35598-0.095703-0.70199-0.13609-1.039-0.1277zm26.371 12.85c-4.082 0.24789-6.881 4.3823-7.28 8.2428-0.54 2.7844 0.92199 6.5085 4.052 6.7307 4.365-0.054596 7.342-4.7881 7.466-8.8611 0.276-2.6937-1.288-5.9636-4.238-6.1124zm-35.73 0.9174c-1.737-0.015198-3.445 1.0407-4.013 2.8327-1.514 4.7936 1.527 10.865 6.529 11.872 2.087 0.3626 3.921-1.2647 4.439-3.2226 1.097-4.1877-1.156-9.0502-4.969-10.951-0.62101-0.3539-1.307-0.52501-1.986-0.5309zm18.3 8.5957c-3.404 0.007309-6.863 1.7611-9.067 4.3717-2.381 3.0428-4.332 6.5838-5.095 10.424-0.927 2.764 1.174 5.945 4.085 5.964 3.502 0.098999 6.512-2.342 9.994-2.523 2.955-0.457 5.601 1.103 8.257 2.124 2.262 0.98102 5.387 0.60501 6.542-1.865 0.90799-2.519-0.42899-5.204-1.537-7.44-2.258-3.63-4.678-7.4451-8.382-9.7114-1.484-0.93401-3.134-1.3478-4.797-1.3441z" fill="#7f7f7f"/>
 </g>
</svg>
